<?xml version="1.0" ?><svg height="32" viewBox="0 0 32 32" width="32" xmlns="http://www.w3.org/2000/svg"><defs><style>.cls-1{fill:none;stroke:#000;stroke-linejoin:round;stroke-width:2px;}</style></defs><title/><g data-name="18-My Space" id="_18-My_Space"><circle class="cls-1" cx="23" cy="7" r="5"/><circle class="cls-1" cx="14" cy="6" r="4"/><circle class="cls-1" cx="7" cy="4" r="3"/><path class="cls-1" d="M18,24v5a2,2,0,0,0,2,2h6a2,2,0,0,0,2-2V19a2,2,0,0,0-2-2H18"/><path class="cls-1" d="M10,19v5.429A1.586,1.586,0,0,0,11.6,26h4.8A1.586,1.586,0,0,0,18,24.429V16.571A1.586,1.586,0,0,0,16.4,15H10"/><path class="cls-1" d="M4,19.714A1.245,1.245,0,0,0,5.2,21H8.8A1.245,1.245,0,0,0,10,19.714V13.286A1.245,1.245,0,0,0,8.8,12H5.2A1.245,1.245,0,0,0,4,13.286Z"/></g></svg>